<?xml version="1.0" standalone="no"?>
<svg version="1.0" xmlns="http://www.w3.org/2000/svg"
	 width="920.000000pt" height="594.000000pt" viewBox="0 0 920.000000 594.000000"
	 preserveAspectRatio="xMidYMid meet">

	<g transform="translate(0.000000,594.000000) scale(0.100000,-0.100000)"
	   fill="currentColor" stroke="none">
		<path d="M4415 5930 c-4 -6 -53 -10 -115 -10 -62 0 -111 -4 -115 -10 -3 -5
-35 -10 -71 -10 -35 0 -64 -4 -64 -8 0 -5 -21 -9 -47 -11 -25 -1 -53 -6 -62
-10 -9 -5 -38 -11 -66 -15 -27 -3 -63 -11 -81 -18 -30 -11 -32 -14 -27 -47 3
-20 10 -44 14 -53 5 -9 9 -26 9 -37 0 -12 4 -29 9 -39 5 -9 22 -44 37 -77 39
-85 99 -171 163 -235 59 -59 152 -130 169 -130 6 0 12 -4 14 -8 6 -16 97 -52
236 -94 41 -12 315 -14 334 -2 7 5 24 10 38 12 59 7 184 62 272 119 45 29 198
172 198 186 0 4 14 26 31 50 45 62 76 134 120 283 19 65 11 70 -146 99 -49 9
-104 21 -121 26 -17 5 -52 9 -78 9 -26 0 -55 4 -65 9 -10 6 -66 11 -125 12
-58 1 -108 5 -111 9 -8 14 -317 11 -334 -3 -12 -9 -13 -9 -7 1 4 6 5 12 2 12
-3 0 -8 -4 -11 -10z"/>
		<path d="M3045 5502 c-71 -48 -139 -95 -150 -104 -11 -9 -46 -37 -78 -61 -153
-118 -389 -349 -503 -493 -16 -20 -36 -45 -45 -55 -9 -11 -27 -35 -40 -54 -13
-19 -27 -35 -31 -35 -5 0 -8 -7 -8 -15 0 -8 -4 -15 -8 -15 -4 0 -23 -25 -42
-56 -19 -31 -39 -62 -44 -68 -6 -7 -17 -23 -25 -36 -8 -14 -23 -39 -34 -57
l-19 -32 54 -34 c160 -100 303 -139 478 -132 98 4 122 7 200 26 82 20 213 84
284 139 59 46 164 159 196 211 114 188 156 384 123 578 -19 119 -25 141 -34
147 -5 3 -9 14 -9 24 0 34 -103 210 -123 210 -6 0 -70 -40 -142 -88z"/>
		<path d="M5980 5582 c0 -5 -8 -17 -18 -28 -22 -24 -92 -166 -92 -187 0 -9 -4
-19 -10 -22 -5 -3 -10 -21 -10 -39 0 -17 -5 -37 -12 -44 -8 -8 -12 -62 -12
-172 0 -110 4 -164 12 -172 7 -7 12 -25 12 -40 0 -16 4 -36 9 -46 5 -9 14 -30
21 -47 28 -70 47 -104 93 -173 55 -81 173 -196 233 -228 21 -11 61 -32 87 -47
26 -15 54 -27 62 -27 9 0 23 -4 33 -9 116 -58 403 -59 547 -1 61 25 146 67
186 94 41 27 45 33 35 51 -17 29 -75 118 -86 132 -5 7 -10 16 -10 22 0 5 -4
11 -8 13 -5 2 -30 35 -57 73 -26 39 -51 72 -54 75 -3 3 -19 23 -36 45 -16 22
-37 47 -47 56 -10 9 -18 19 -18 22 0 3 -30 38 -67 78 -188 199 -304 305 -469
429 -25 19 -52 41 -59 48 -8 6 -17 12 -22 12 -4 0 -20 11 -35 25 -15 14 -29
25 -32 25 -3 0 -37 20 -75 45 -65 42 -101 55 -101 37z"/>
		<path d="M4501 4844 c-56 -20 -114 -74 -140 -130 -28 -59 -29 -165 -2 -220 25
-50 84 -105 138 -129 51 -22 160 -17 211 9 44 22 112 94 112 116 0 10 5 20 11
22 16 5 16 165 1 180 -7 7 -12 19 -12 27 0 16 -37 59 -78 93 -55 45 -162 59
-241 32z"/>
		<path d="M5693 4403 c3 -5 -13 -9 -35 -11 -48 -3 -108 -41 -150 -93 -26 -33
-35 -54 -55 -137 -6 -24 8 -80 33 -139 17 -38 100 -113 125 -113 10 0 21 -4
24 -10 15 -25 177 -5 211 25 6 6 22 19 35 31 42 36 69 73 69 93 0 11 5 23 10
26 6 3 10 35 10 70 0 35 -4 67 -10 70 -5 3 -10 17 -10 31 0 13 -4 24 -10 24
-5 0 -10 5 -10 10 0 30 -110 110 -151 110 -15 0 -31 5 -34 10 -3 6 -17 10 -31
10 -14 0 -23 -3 -21 -7z"/>
		<path d="M3420 4392 c-57 -7 -142 -67 -168 -118 -36 -69 -53 -166 -32 -179 6
-3 10 -15 10 -26 0 -24 46 -99 73 -119 64 -48 98 -60 166 -60 38 0 84 7 104
15 43 18 108 80 126 120 7 17 17 38 22 47 5 10 9 43 9 73 0 30 -4 63 -9 73 -5
9 -15 30 -22 46 -19 39 -88 106 -110 106 -9 0 -19 4 -21 9 -3 10 -106 19 -148
13z"/>
		<path d="M1782 3836 c-11 -23 -15 -40 -38 -161 -46 -254 -58 -389 -58 -645 0
-262 18 -459 59 -655 8 -38 17 -83 20 -100 4 -16 8 -40 11 -52 3 -18 11 -23
34 -23 16 0 39 4 52 9 13 5 43 15 68 22 122 35 243 110 340 210 71 73 130 149
130 167 0 7 5 12 10 12 6 0 10 6 10 13 0 7 9 29 20 50 11 20 17 37 13 37 -4 0
-2 5 5 12 7 7 12 22 12 34 0 13 5 26 10 29 6 3 10 21 10 40 0 19 5 37 10 40 6
4 10 65 10 150 0 85 -4 146 -10 150 -5 3 -10 21 -10 40 0 19 -4 37 -10 40 -5
3 -10 14 -10 23 0 17 -49 142 -60 152 -3 3 -11 17 -19 33 -8 15 -18 27 -23 27
-4 0 -8 6 -8 13 0 14 -150 177 -163 177 -4 0 -20 11 -34 24 -29 27 -138 86
-159 86 -8 0 -14 5 -14 10 0 6 -10 10 -23 10 -13 0 -27 4 -32 9 -6 5 -40 16
-76 24 -66 14 -67 14 -77 -7z"/>
		<path d="M7303 3835 c-23 -6 -45 -13 -49 -18 -4 -4 -18 -7 -31 -7 -12 0 -23
-4 -23 -10 0 -5 -7 -10 -15 -10 -23 0 -124 -59 -189 -110 -26 -20 -105 -98
-137 -136 -34 -40 -99 -151 -99 -170 0 -7 -4 -14 -9 -14 -5 0 -11 -10 -14 -22
-3 -13 -15 -57 -26 -98 -31 -109 -31 -325 -1 -430 12 -41 24 -85 27 -97 3 -13
9 -23 14 -23 5 0 9 -9 9 -20 0 -11 3 -20 8 -20 4 0 13 -15 21 -32 13 -30 50
-85 76 -114 90 -101 198 -194 225 -194 5 0 10 -3 10 -8 0 -11 89 -48 221 -90
19 -7 47 -12 62 -12 27 0 32 9 40 67 2 12 6 26 10 29 4 4 7 22 7 40 0 18 5 36
10 39 6 3 10 28 10 55 0 27 5 52 10 55 6 3 10 30 10 58 0 29 4 68 9 87 10 38
23 248 24 375 0 114 -14 398 -21 409 -3 6 -9 42 -13 80 -4 39 -10 85 -14 101
-3 17 -11 55 -16 85 -6 30 -15 69 -19 85 -5 17 -11 43 -14 58 -6 24 -11 27
-39 25 -17 -1 -51 -7 -74 -13z"/>
		<path d="M2900 3255 c-108 -54 -163 -168 -138 -285 6 -33 16 -60 20 -60 4 0 8
-4 8 -10 0 -16 42 -60 90 -94 42 -29 51 -31 130 -30 69 0 92 4 123 22 44 26
87 66 87 82 0 5 4 10 9 10 8 0 13 11 29 65 8 27 8 113 0 147 -14 61 -78 130
-146 159 -61 26 -153 24 -212 -6z"/>
		<path d="M6066 3253 c-50 -25 -106 -78 -106 -100 0 -7 -4 -13 -9 -13 -5 0 -12
-15 -16 -32 -15 -68 -4 -198 16 -198 5 0 9 -6 9 -13 0 -15 49 -63 100 -98 29
-20 47 -24 115 -24 75 0 145 18 145 37 0 5 5 8 11 8 37 0 109 136 109 204 0
51 -35 136 -72 178 -70 77 -204 100 -302 51z"/>
		<path d="M3383 2148 c-52 -14 -131 -95 -153 -158 -21 -59 -26 -125 -10 -135 6
-3 10 -15 10 -26 0 -37 80 -139 110 -139 6 0 10 -3 10 -8 0 -12 77 -32 127
-32 30 0 67 9 98 24 54 25 115 80 115 102 0 8 5 14 10 14 6 0 10 9 10 19 0 11
4 22 8 25 14 8 14 104 0 144 -18 53 -66 121 -94 134 -13 6 -24 14 -24 18 0 20
-161 34 -217 18z"/>
		<path d="M5650 2152 c-65 -20 -133 -71 -160 -121 -26 -50 -39 -125 -28 -171
31 -133 123 -210 250 -210 61 0 128 17 128 32 0 4 5 8 11 8 14 0 79 65 79 79
0 6 5 11 10 11 6 0 10 9 10 19 0 11 5 23 10 26 23 14 2 205 -22 205 -5 0 -8 5
-8 11 0 11 -31 43 -78 81 -12 10 -22 15 -22 13 0 -3 -9 -1 -20 5 -22 12 -134
20 -160 12z"/>
		<path d="M2415 1789 c-67 -7 -164 -32 -209 -55 -16 -7 -35 -14 -43 -14 -7 0
-13 -3 -13 -8 0 -4 -15 -14 -32 -22 -18 -7 -37 -18 -43 -22 -5 -4 -20 -16 -33
-26 l-23 -17 31 -48 c16 -26 30 -52 30 -57 0 -6 5 -10 10 -10 6 0 10 -5 10
-11 0 -12 70 -112 82 -117 5 -2 8 -10 8 -17 0 -7 4 -15 8 -17 4 -1 21 -21 37
-43 129 -175 364 -419 540 -560 28 -22 52 -42 55 -45 3 -3 30 -23 60 -45 30
-22 64 -48 74 -57 11 -10 26 -18 33 -18 7 0 13 -3 13 -8 0 -4 16 -16 35 -26
19 -11 35 -23 35 -28 0 -4 4 -8 10 -8 5 0 31 -14 57 -30 l47 -30 15 27 c7 16
17 30 21 33 12 9 60 102 60 116 0 8 5 14 10 14 6 0 10 11 10 24 0 14 4 27 9
30 5 3 11 18 14 33 3 16 8 39 12 53 4 14 9 79 12 146 5 116 -10 247 -36 309
-31 74 -97 196 -117 218 -13 14 -24 29 -24 33 0 4 -29 35 -64 68 -73 70 -106
98 -106 91 0 -3 -10 3 -22 15 -12 11 -27 20 -34 20 -7 0 -14 4 -16 8 -9 22
-221 97 -241 85 -6 -3 -7 -1 -3 5 5 9 -13 12 -66 13 -40 1 -91 2 -113 3 -22 0
-67 -2 -100 -5z"/>
		<path d="M6475 1776 c-22 -6 -46 -15 -52 -19 -7 -5 -13 -6 -13 -3 0 3 -22 -2
-48 -12 -78 -30 -112 -46 -112 -54 0 -5 -5 -8 -11 -8 -50 0 -299 -249 -299
-299 0 -6 -3 -11 -8 -11 -4 0 -13 -15 -21 -32 -7 -18 -20 -46 -27 -62 -8 -16
-14 -37 -14 -47 0 -10 -4 -21 -10 -24 -5 -3 -10 -17 -10 -31 0 -14 -5 -35 -11
-46 -14 -27 -14 -317 0 -331 6 -6 11 -26 11 -43 0 -18 5 -36 10 -39 6 -3 10
-14 10 -24 0 -9 11 -41 25 -69 14 -29 25 -54 25 -58 0 -8 62 -98 74 -106 5 -4
22 2 37 13 15 10 32 19 37 19 6 0 12 4 14 8 2 5 30 26 63 47 233 150 525 412
704 630 45 55 90 110 101 122 11 12 20 27 20 32 0 5 4 11 9 13 11 4 171 243
171 256 0 6 6 12 13 15 16 5 -24 39 -83 69 -25 12 -47 25 -50 28 -10 11 -171
62 -199 64 -16 0 -27 4 -25 8 8 12 -286 7 -331 -6z"/>
		<path d="M4555 1690 c-3 -5 -17 -10 -31 -10 -22 0 -93 -38 -120 -64 -6 -6 -23
-33 -37 -59 -35 -61 -38 -171 -8 -233 23 -47 68 -95 108 -113 15 -7 36 -17 45
-22 33 -17 136 -10 182 12 103 48 147 116 149 229 1 89 -14 129 -69 184 -60
60 -199 108 -219 76z"/>
		<path d="M4495 929 c-11 -4 -39 -8 -62 -8 -23 -1 -45 -5 -48 -11 -3 -5 -17
-10 -31 -10 -13 0 -32 -4 -42 -9 -9 -5 -46 -23 -82 -40 -123 -57 -184 -105
-290 -227 -78 -90 -165 -280 -170 -369 -3 -49 -1 -53 33 -58 17 -3 75 -14 127
-25 97 -21 135 -28 205 -36 22 -3 65 -9 95 -13 30 -4 190 -8 355 -8 264 0 375
5 465 20 14 3 39 7 55 9 17 3 59 10 95 17 36 6 82 14 103 16 20 3 40 9 43 14
3 5 21 9 40 9 28 0 34 4 34 22 0 59 -99 318 -121 318 -5 0 -9 6 -9 13 0 29
-140 177 -215 227 -27 19 -52 36 -55 39 -3 3 -34 19 -70 35 -36 16 -73 32 -82
37 -10 5 -27 9 -37 9 -11 0 -22 4 -25 9 -12 18 -272 36 -311 20z"/>
	</g>
</svg>
